PathFileType	4	(X/Y/Z)	D:\MotionData\Pi-Spi Study\20230118_AMCsubject1\Trimmed_right_horiz_add01_rotated.trc
DataRate	CameraRate	NumFrames	NumMarkers	Units	OrigDataRate	OrigDataStartFrame	OrigNumFrames
200.00	200.00	       10	35	mm	200.00	76	       200
Frame#	Time	C7			Sternum			r_AMC1			r_AMC2			r_AMC3			l_AMC1			l_AMC2			l_AMC3			PX			T8			r_humerous			r_elbow_medial			r_elbow_lateral			r_forearm			r_wrist_radius			r_wrist_ulna			r_MCP_1			r_MCP_3			l_humerous			l_elbow_medial			l_elbow_lateral			l_forearm			l_wrist_radius			l_wrist_ulna			l_MCP_1			l_MCP_3			r_ASIS			r_PSIS			l_ASIS			l_PSIS			r_IC			l_IC			TS			AI			AA			
		X1	Y1	Z1	X2	Y2	Z2	X3	Y3	Z3	X4	Y4	Z4	X5	Y5	Z5	X6	Y6	Z6	X7	Y7	Z7	X8	Y8	Z8	X9	Y9	Z9	X10	Y10	Z10	X11	Y11	Z11	X12	Y12	Z12	X13	Y13	Z13	X14	Y14	Z14	X15	Y15	Z15	X16	Y16	Z16	X17	Y17	Z17	X18	Y18	Z18	X19	Y19	Z19	X20	Y20	Z20	X21	Y21	Z21	X22	Y22	Z22	X23	Y23	Z23	X24	Y24	Z24	X25	Y25	Z25	X26	Y26	Z26	X27	Y27	Z27	X28	Y28	Z28	X29	Y29	Z29	X30	Y30	Z30	X31	Y31	Z31	X32	Y32	Z32	X33	Y33	Z33	X34	Y34	Z34	X35	Y35	Z35	

76	0.375	163.5922	1373.8737	-218.8854	300.8121	1315.5045	-213.1891	180.958	1357.408	-59.9235	218.7431	1388.6486	-56.1999	213.0182	1402.6925	-98.1142	185.7264	1318.9701	-381.4727	225.08	1315.5844	-414.1989	244.6351	1354.728	-384.2979	368.1853	1126.1658	-205.2722	133.1729	1186.9959	-220.8349	371.0093	1362.2772	-148.0756	489.9593	1276.2136	-187.0115	507.6525	1330.031	-159.7551	639.03	1353.8675	-268.103	687.1959	1325.8319	-319.0829	677.8821	1375.9473	-327.4278	748.5815	1340.3848	-378.9565	744.2093	1388.4919	-379.0538	318.4313	1127.4128	-403.2171	249.5438	993.1028	-389.8794	270.8161	991.9013	-440.7618	334.273	847.4041	-459.8447	381.73	779.2476	-438.4519	339.8775	770.6291	-454.7518	399.4719	702.1178	-448.4202	352.0806	696.1955	-460.3032	338.001	909.5674	-69.5655	157.36	927.9368	-165.9626	359.6578	891.8059	-326.8226	166.2663	920.766	-268.2335	252.8007	970.3219	-46.5228	272.9108	939.0247	-372.3694	92.1933	1297.3149	-103.7132	121.4402	1209.1818	-61.4634	169.087	1363.509	-0.44661
77	0.38	163.5922	1373.8621	-218.9047	300.8439	1315.5018	-213.2	180.9588	1357.3782	-59.9012	218.6096	1388.7877	-56.0818	213.0191	1402.6716	-98.1082	185.714	1318.9507	-381.4908	225.0926	1315.5835	-414.1965	244.6135	1354.7067	-384.3212	368.1878	1126.1532	-205.2521	133.175	1186.9998	-220.8656	371.0414	1362.4957	-147.9208	489.9668	1276.2362	-186.9253	507.5027	1329.8341	-160.0659	639.0538	1353.8705	-268.0444	687.1802	1326.0023	-319.0484	677.8859	1376.0297	-327.3884	748.6625	1340.491	-378.9265	744.2244	1388.5712	-379.0118	318.4531	1127.2844	-403.1567	249.5409	993.0955	-389.9169	270.8116	991.9058	-440.7836	334.2994	847.3508	-459.8725	381.7101	779.2528	-438.4612	339.9164	770.5442	-454.7298	399.4506	702.1266	-448.4499	352.0698	696.1938	-460.3198	337.9651	909.572	-69.5619	157.3369	927.944	-165.9783	359.6327	891.7694	-326.8138	166.2888	920.7509	-268.2456	252.8389	970.3049	-46.5344	272.8259	939.1089	-372.4019	92.1975	1297.308	-103.7416	121.483	1209.125	-61.5618	169.0589	1363.5123	-0.46587
78	0.385	163.5846	1373.8809	-218.8999	300.8103	1315.4951	-213.2246	180.9676	1357.3694	-59.92	218.7653	1388.6403	-56.2651	213.0003	1402.6635	-98.0996	185.7013	1318.9311	-381.5211	225.0938	1315.5598	-414.2371	244.6144	1354.7197	-384.3129	368.2214	1126.1487	-205.2783	132.9373	1186.9418	-220.6866	371.0316	1362.5349	-147.902	490.0159	1276.251	-186.8962	507.6599	1330.1054	-159.7004	639.0486	1353.9763	-267.9953	687.2849	1326.0332	-319.036	677.8887	1376.1268	-327.347	748.6574	1340.5985	-378.8597	744.2248	1388.6896	-378.945	318.4638	1127.3009	-403.1985	249.5481	993.0895	-389.9461	270.82	991.8937	-440.802	334.2253	847.4384	-459.9277	381.7143	779.237	-438.4842	339.9151	770.6518	-454.8405	399.4581	702.1244	-448.4755	352.0806	696.1967	-460.3501	338.1481	909.7704	-69.3061	157.3451	927.9251	-165.9692	359.62	891.77	-326.821	166.2681	920.7501	-268.237	252.8282	970.3175	-46.5082	272.9265	939.0343	-372.3912	92.1897	1297.3054	-103.7383	121.5154	1209.1178	-61.6061	169.064	1363.5023	-0.4786
79	0.39	163.5751	1373.9004	-218.9185	300.837	1315.4762	-213.2192	180.9308	1357.3763	-59.9391	218.7518	1388.5811	-56.3013	212.9677	1402.6918	-98.1248	185.6766	1318.942	-381.5295	225.0916	1315.5546	-414.2376	244.5996	1354.7118	-384.3248	368.2324	1126.1298	-205.2934	133.1742	1187.0026	-220.8861	371.0509	1362.2565	-148.0432	490.0128	1276.2848	-186.8865	507.6935	1330.1515	-159.6812	639.0814	1354.0033	-267.9847	687.2833	1326.1516	-318.9797	677.928	1376.1717	-327.3412	748.6954	1340.713	-378.8442	744.1539	1388.703	-379.091	318.4508	1127.2815	-403.2106	249.5388	993.0732	-389.9405	270.8345	991.9587	-440.839	334.3006	847.3578	-459.9275	381.7081	779.2201	-438.5201	339.952	770.5544	-454.8295	399.4471	702.1102	-448.5093	352.0792	696.1981	-460.3891	337.928	909.5718	-69.5603	157.3369	927.9397	-165.9825	359.6402	891.7906	-326.8556	166.2821	920.7337	-268.2656	252.8175	970.299	-46.5262	272.9548	939.0123	-372.4494	92.1688	1297.3055	-103.7442	121.4774	1209.1186	-61.5896	169.0293	1363.4877	-0.47459
80	0.395	163.5971	1373.8892	-218.9175	300.7839	1315.4817	-213.206	180.9196	1357.3564	-59.9297	218.7253	1388.6294	-56.2769	212.9853	1402.6687	-98.1028	185.6242	1318.8133	-381.0496	225.0776	1315.561	-414.2378	244.6046	1354.726	-384.3183	368.2149	1126.1298	-205.3034	133.1414	1186.9921	-220.9133	371.0573	1362.2842	-148.0079	490.0188	1276.2947	-186.8632	507.6843	1330.1862	-159.6557	639.0811	1354.0972	-267.9671	687.3193	1326.1859	-318.9533	677.9224	1376.2681	-327.2653	748.6876	1340.8301	-378.7846	744.2258	1388.8972	-378.8669	318.4188	1127.3138	-403.2066	249.5397	993.0841	-389.9718	270.8026	991.8968	-440.836	334.2472	847.3794	-459.9568	381.7051	779.2297	-438.5406	339.9437	770.496	-454.7978	399.4364	702.1223	-448.5397	352.0868	696.2192	-460.4181	337.9578	909.605	-69.5572	157.3289	927.9365	-166.0024	359.6545	891.8149	-326.8279	166.285	920.7613	-268.2414	252.7931	970.3219	-46.5438	272.9289	939.0373	-372.373	92.1695	1297.2992	-103.778	121.5048	1209.1356	-61.6059	169.0281	1363.5022	-0.47743
81	0.4	163.5948	1373.8799	-218.9447	300.782	1315.4862	-213.2248	180.9122	1357.3618	-59.9522	218.6983	1388.6414	-56.2513	213	1402.6562	-98.1171	185.6971	1318.9456	-381.5375	225.0679	1315.5818	-414.2464	244.5876	1354.7201	-384.3375	368.2191	1126.1757	-205.2902	133.1614	1186.9928	-220.9317	371.0801	1362.2704	-148.0029	489.9995	1276.3955	-186.8415	507.7048	1330.2313	-159.6453	638.6068	1353.4642	-268.4181	687.3641	1326.2714	-318.9058	677.9111	1376.3754	-327.2336	748.7253	1340.8846	-378.7486	744.1874	1388.882	-379.0127	318.4288	1127.3138	-403.2405	249.5433	993.0836	-389.9858	270.808	991.8891	-440.8651	334.2107	847.423	-459.9982	381.6951	779.2412	-438.5632	339.9171	770.573	-454.8846	399.426	702.144	-448.5832	352.0781	696.2098	-460.4424	337.9159	909.589	-69.5384	157.3338	927.9336	-166.0071	359.6198	891.8043	-326.828	166.2789	920.7639	-268.2742	252.7809	970.3127	-46.5669	272.9372	938.9941	-372.404	92.1661	1297.3109	-103.7798	121.5483	1209.1671	-61.6302	169.0023	1363.4913	-0.52149
82	0.405	163.5954	1373.8965	-218.9484	300.7633	1315.4887	-213.2509	180.8912	1357.3656	-59.9871	218.6484	1388.6726	-56.4106	212.9816	1402.6988	-98.1273	185.7503	1318.9222	-381.5703	225.0674	1315.5821	-414.2631	244.599	1354.7242	-384.3495	368.2265	1126.1331	-205.3359	133.1562	1187.001	-220.9283	371.087	1362.297	-147.9974	490.0482	1276.4021	-186.7949	507.7325	1330.2869	-159.6203	638.6442	1353.5187	-268.4223	687.3427	1326.3845	-318.8581	677.9127	1376.4343	-327.2069	748.7377	1340.9723	-378.7249	744.2716	1389.0133	-378.7893	318.4693	1127.2847	-403.3011	249.5523	993.0923	-390.0035	270.8162	991.9085	-440.8866	334.2524	847.3947	-460.0075	381.6853	779.2482	-438.576	339.9281	770.5883	-454.9145	399.4054	702.1512	-448.5936	352.0678	696.2174	-460.5095	337.8915	909.6141	-69.5379	157.335	927.9357	-166.0082	359.6237	891.8108	-326.8434	166.3049	920.7679	-268.2637	252.7791	970.3309	-46.5446	272.9219	939.0213	-372.4179	92.1827	1297.3103	-103.8118	121.4623	1208.9681	-61.5798	168.9923	1363.5209	-0.53994
83	0.41	163.6005	1373.8993	-218.9677	300.7608	1315.5193	-213.2577	180.8615	1357.3868	-59.9932	218.6927	1388.5934	-56.2786	212.9765	1402.6737	-98.1461	185.6447	1318.9752	-381.5339	225.0598	1315.5824	-414.2462	244.5858	1354.7266	-384.3468	368.2471	1126.1548	-205.3005	133.1606	1186.9849	-220.9611	371.0582	1362.3807	-147.9836	490.0503	1276.3903	-186.7771	507.7301	1330.3195	-159.6185	638.6091	1353.6248	-268.3588	687.3908	1326.3827	-318.8233	677.9073	1376.4663	-327.1985	748.7378	1341.071	-378.6892	744.2516	1389.1171	-378.753	318.3782	1127.4575	-403.3058	249.5193	993.0957	-390.0217	270.823	991.9066	-440.9069	334.2035	847.4382	-460.0275	381.6668	779.2452	-438.6006	339.9209	770.5991	-454.9767	399.4158	702.1555	-448.6188	352.0385	696.238	-460.5134	337.9182	909.6193	-69.5527	157.3175	927.9318	-166.0254	359.6007	891.8096	-326.8574	166.2632	920.7567	-268.282	252.7493	970.3494	-46.5583	272.9038	939.0294	-372.4103	92.1623	1297.3196	-103.7949	121.4888	1208.9628	-61.6281	169.0115	1363.5781	-0.53447
84	0.415	163.5825	1373.8818	-218.9788	300.7948	1315.512	-213.2501	180.8806	1357.3782	-60.013	218.6775	1388.561	-56.1614	212.972	1402.6758	-98.1514	185.7623	1318.9177	-381.5999	225.0505	1315.6017	-414.2857	244.5746	1354.7366	-384.3529	368.2471	1126.1913	-205.3163	133.1755	1186.9978	-220.9808	371.0619	1362.392	-147.9486	490.0156	1276.5111	-186.7901	507.7121	1330.365	-159.5896	638.6468	1353.6748	-268.3386	687.3871	1326.4707	-318.8136	677.8973	1376.5308	-327.1625	748.7495	1341.0823	-378.6533	744.2864	1389.1755	-378.7635	318.4556	1127.2947	-403.2655	249.5415	993.1017	-390.0564	270.8337	991.9166	-440.9333	334.2428	847.4302	-460.0467	381.6548	779.2538	-438.6163	339.8793	770.5919	-454.9818	399.4049	702.1664	-448.6454	351.9899	696.2455	-460.5488	337.9129	909.6312	-69.5715	157.3088	927.9432	-166.0376	359.6677	891.818	-326.8701	166.2875	920.7498	-268.2775	252.7313	970.3876	-46.5686	272.9102	939.03	-372.4029	92.1653	1297.3326	-103.8215	121.4784	1208.9702	-61.6471	169.0163	1363.5861	-0.55131
85	0.42	163.5733	1373.9027	-218.9665	300.7658	1315.5369	-213.2615	180.8741	1357.3501	-60.0349	218.6141	1388.6455	-56.3676	212.9413	1402.7062	-98.1912	185.7179	1318.9231	-381.5994	225.0615	1315.5985	-414.2966	244.601	1354.7422	-384.3678	368.2324	1126.2136	-205.339	133.1813	1186.9949	-220.9971	371.0715	1362.368	-147.9924	490.0308	1276.5147	-186.776	507.7171	1330.3955	-159.5636	638.6625	1353.6794	-268.3089	687.3675	1326.6088	-318.7817	677.8709	1376.6377	-327.1353	748.7709	1341.1639	-378.6369	744.2507	1389.0127	-378.8834	318.4378	1127.3303	-403.3146	249.5305	993.103	-390.0654	270.8165	991.9219	-440.9406	334.1682	847.4959	-460.1107	381.6461	779.2652	-438.6442	339.8737	770.5737	-455.0007	399.3992	702.1722	-448.6699	351.9772	696.2469	-460.5838	337.877	909.6236	-69.5662	157.3015	927.9392	-166.0417	359.6239	891.8156	-326.8803	166.2671	920.7393	-268.3056	252.7367	970.3521	-46.5706	272.8	939.1345	-372.5027	92.1552	1297.3324	-103.8342	121.5807	1209.2113	-61.6995	169.0593	1363.6061	-0.54499
